<svg xmlns="http://www.w3.org/2000/svg" width="450" height="450" fill="none"><path fill="#E0E0E0" d="M255.438 76.871a8.6 8.6 0 0 0-1.215 2.943l-1.647.153v3.186l1.647.153a8.4 8.4 0 0 0 1.215 2.943l-1.053 1.269 2.25 2.25 1.269-1.053a8.6 8.6 0 0 0 2.943 1.215l.153 1.647h3.186l.153-1.647a8.6 8.6 0 0 0 2.943-1.215l1.269 1.053 2.25-2.25-1.053-1.269a8.6 8.6 0 0 0 1.215-2.943l1.647-.153v-3.186l-1.647-.153a8.6 8.6 0 0 0-1.215-2.943l1.053-1.269-2.25-2.25-1.269 1.053a8.6 8.6 0 0 0-2.943-1.215l-.153-1.647H261l-.153 1.647a8.6 8.6 0 0 0-2.943 1.215l-1.269-1.053-2.25 2.25zm10.206 1.647a4.31 4.31 0 0 1 0 6.093 4.31 4.31 0 0 1-6.093 0 4.31 4.31 0 0 1 0-6.093 4.31 4.31 0 0 1 6.093 0M386.497 124.355a8.6 8.6 0 0 0-1.215 2.943l-1.647.153v3.186l1.647.153a8.4 8.4 0 0 0 1.215 2.943l-1.053 1.269 2.25 2.25 1.269-1.053a8.6 8.6 0 0 0 2.943 1.215l.153 1.647h3.186l.153-1.647a8.6 8.6 0 0 0 2.943-1.215l1.269 1.053 2.25-2.25-1.053-1.269a8.6 8.6 0 0 0 1.215-2.943l1.647-.153v-3.186l-1.647-.153a8.6 8.6 0 0 0-1.215-2.943l1.053-1.269-2.25-2.25-1.269 1.053a8.6 8.6 0 0 0-2.943-1.215l-.153-1.647h-3.186l-.153 1.647a8.6 8.6 0 0 0-2.943 1.215l-1.269-1.053-2.25 2.25zm10.206 1.647a4.31 4.31 0 0 1 0 6.093 4.31 4.31 0 0 1-6.093 0 4.31 4.31 0 0 1 0-6.093 4.31 4.31 0 0 1 6.093 0M56.71 122.527a8.6 8.6 0 0 0-1.215 2.943l-1.647.153v3.186l1.647.153a8.6 8.6 0 0 0 1.215 2.943l-1.053 1.269 2.25 2.25 1.269-1.053a8.6 8.6 0 0 0 2.943 1.215l.153 1.647h3.186l.153-1.647a8.6 8.6 0 0 0 2.943-1.215l1.269 1.053 2.25-2.25-1.053-1.269a8.6 8.6 0 0 0 1.215-2.943l1.647-.153v-3.186l-1.647-.153a8.6 8.6 0 0 0-1.215-2.943l1.053-1.269-2.25-2.25-1.27 1.053a8.6 8.6 0 0 0-2.942-1.215l-.153-1.647h-3.186l-.153 1.647a8.6 8.6 0 0 0-2.943 1.215l-1.27-1.053-2.25 2.25zm10.206 1.647a4.31 4.31 0 0 1 0 6.093 4.31 4.31 0 0 1-6.093 0 4.31 4.31 0 0 1 0-6.093 4.31 4.31 0 0 1 6.093 0"/><path fill="#E0E0E0" d="M399.529 297.18H236.854a5.28 5.28 0 0 1-5.274-5.274V54.954a5.28 5.28 0 0 1 5.274-5.274h162.675a5.28 5.28 0 0 1 5.274 5.274v236.952a5.28 5.28 0 0 1-5.274 5.274M236.854 49.905a5.06 5.06 0 0 0-5.049 5.049v236.952a5.06 5.06 0 0 0 5.049 5.049h162.675a5.06 5.06 0 0 0 5.049-5.049V54.954a5.06 5.06 0 0 0-5.049-5.05zM211.942 297.18H49.276a5.28 5.28 0 0 1-5.274-5.274V54.954a5.28 5.28 0 0 1 5.274-5.274h162.666a5.28 5.28 0 0 1 5.274 5.274v236.952a5.28 5.28 0 0 1-5.274 5.274M49.276 49.905a5.06 5.06 0 0 0-5.049 5.049v236.952a5.06 5.06 0 0 0 5.049 5.049h162.666a5.06 5.06 0 0 0 5.049-5.049V54.954a5.06 5.06 0 0 0-5.049-5.05zM450 352.145H0v.225h450zM60.958 364.977H46.504v.225h14.454zM201.491 362.539h-48.177v.225h48.177zM94.482 373.336H61.857v.225h32.625zM379.387 362.422h-38.871v.225h38.871zM393.101 362.422h-5.697v.225h5.697zM333.091 368.027H284.59v.225h48.501z"/><path fill="#E0E0E0" d="M378.567 271.299a10.6 10.6 0 0 0-1.503 3.636l-2.025.189v3.933l2.034.189a10.4 10.4 0 0 0 1.503 3.636l-1.296 1.566 2.781 2.781 1.566-1.296a10.6 10.6 0 0 0 3.636 1.503l.189 2.034h3.933l.189-2.034a10.4 10.4 0 0 0 3.636-1.503l1.566 1.296 2.781-2.781-1.296-1.566a10.6 10.6 0 0 0 1.503-3.636l2.025-.189v-3.933l-2.025-.189a10.4 10.4 0 0 0-1.503-3.636l1.296-1.566-2.781-2.781-1.566 1.296a10.6 10.6 0 0 0-3.636-1.503l-.189-2.034h-3.933l-.189 2.034a10.4 10.4 0 0 0-3.636 1.503l-1.566-1.296-2.781 2.781 1.296 1.566zm12.6 2.025a5.32 5.32 0 0 1 0 7.524 5.32 5.32 0 0 1-7.524 0 5.32 5.32 0 0 1 0-7.524 5.32 5.32 0 0 1 7.524 0M63.45 267.273a8.6 8.6 0 0 0-1.215 2.943l-1.647.153v3.186l1.647.153a8.6 8.6 0 0 0 1.215 2.943l-1.053 1.269 2.25 2.25 1.269-1.053a8.6 8.6 0 0 0 2.943 1.215l.153 1.647h3.186l.153-1.647a8.6 8.6 0 0 0 2.943-1.215l1.269 1.053 2.25-2.25-1.053-1.269a8.6 8.6 0 0 0 1.215-2.943l1.647-.153v-3.186l-1.647-.153a8.6 8.6 0 0 0-1.215-2.943l1.053-1.269-2.25-2.25-1.27 1.053a8.6 8.6 0 0 0-2.942-1.215l-.153-1.647h-3.186l-.153 1.647a8.4 8.4 0 0 0-2.943 1.215l-1.27-1.053-2.25 2.25zm10.206 1.647a4.31 4.31 0 0 1 0 6.093 4.31 4.31 0 0 1-6.093 0 4.31 4.31 0 0 1 0-6.093 4.31 4.31 0 0 1 6.093 0M54.757 61.032C37.675 68.907 25.984 79.94 28.63 85.682c2.646 5.743 18.639 4.015 35.712-3.86S93.114 62.904 90.468 57.17s-18.64-4.014-35.712 3.86m8.424 18.26c-14.94 6.886-28.8 8.668-30.96 3.988-2.16-4.69 8.199-14.058 23.13-20.943s28.79-8.676 30.96-3.996c2.168 4.689-8.2 14.067-23.13 20.952"/><path fill="#E6E6E6" d="M79.458 76.545c3.6-10.078-1.654-21.166-11.732-24.764-10.079-3.6-21.166 1.654-24.765 11.732-3.598 10.079 1.654 21.166 11.733 24.765 10.078 3.598 21.166-1.654 24.764-11.733"/><g fill="#FAFAFA" opacity=".2"><path d="M44.523 60.266c.261-.504.558-.981.9-1.431 5.85-1.737 17.118-4.428 22.248-7.038.774.26 1.53.585 2.26.963-6.4 1.467-19.666 6.165-25.408 7.515zM43.02 63.37a59 59 0 0 1 13.698-2.708c3.132 0 12.41-3.645 15.687-6.435q.389.256.738.567c-8.037 3.384-17.83 11.754-22.347 14.175a49 49 0 0 1-8.74 3.726 18.4 18.4 0 0 1-.134-4.446 20 20 0 0 1 1.107-4.896z"/></g><path fill="#E0E0E0" d="M42.3 74.15a42 42 0 0 0 4.177-1.214c5.3-1.8 14.868-9.531 23.337-13.086 3.177-1.323 5.004-2.088 6.066-2.502.324.387.639.774.936 1.215a65 65 0 0 1-7.524 3.762c-5.391 2.259-11.142 5.319-14.463 8.082-2.538 2.097-8.946 4.86-11.934 5.877a15 15 0 0 1-.594-2.133M43.38 77.572a123 123 0 0 1 14.824-2.727c8.397-.972 11.583-4.698 15.02-8.244a23 23 0 0 1 5.806-4.14c.315.72.585 1.458.792 2.205a58.3 58.3 0 0 1-12.69 8.046c-7.956 3.726-19 5.535-23.14 6.129a8.3 8.3 0 0 1-.602-1.278zM47.763 83.945a67.6 67.6 0 0 0 20.96-6.273c5.4-2.655 9.253-4.76 11.809-6.219.009.117.009.243 0 .36a20 20 0 0 1-.234 1.665c-6.066 3.24-20.106 9.927-32.364 10.611-.081-.009-.135-.08-.18-.144z"/><path fill="#F0F0F0" d="M47.133 56.728A19.43 19.43 0 0 1 63 50.752c.459 0 .936.108 1.386.18-4.131 1.917-11.79 5.05-17.253 5.787z"/><path fill="#E0E0E0" d="M52.875 87.51c4.86-1.152 17.262-4.275 22.545-7.164a25 25 0 0 1 3.033-1.467 14 14 0 0 1-1.053 1.818c-3.78 1.647-11.07 4.67-15.183 5.346-3.645.585-6.894 1.215-8.847 1.683a2.4 2.4 0 0 1-.486-.216zM69.264 54.297s-7.101 4.392-10.296 4.932a39 39 0 0 1-5.868.549s10.269-5.265 16.155-5.472zM84.16 56.477a3.88 3.88 0 0 1 2.15 1.917c2.16 4.689-8.198 14.067-23.13 20.952-14.93 6.885-28.8 8.667-30.96 3.987a3.88 3.88 0 0 1 0-2.844l-3.653 1.683a4.97 4.97 0 0 0 .08 3.564c2.647 5.742 18.64 4.014 35.713-3.861s28.773-18.918 26.127-24.651a4.9 4.9 0 0 0-2.655-2.376l-3.663 1.629zM204.318 117.148a5.148 5.148 0 1 0 0-10.296 5.148 5.148 0 0 0 0 10.296M271.142 131.834a3.501 3.501 0 1 0 0-7.002 3.501 3.501 0 0 0 0 7.002M362.06 203.041a3.501 3.501 0 1 0 0-7.002 3.501 3.501 0 0 0 0 7.002M296.098 285.861a1.944 1.944 0 1 0 0-3.888 1.944 1.944 0 0 0 0 3.888M242.163 106.103a1.945 1.945 0 1 0-.002-3.89 1.945 1.945 0 0 0 .002 3.89M370.251 250.24a2.35 2.35 0 0 1-2.349 2.349 2.35 2.35 0 0 1-2.349-2.349 2.35 2.35 0 0 1 2.349-2.349 2.35 2.35 0 0 1 2.349 2.349M239.814 291.573a2.35 2.35 0 1 0 0-4.699 2.35 2.35 0 0 0 0 4.699M87.11 241.732a2.35 2.35 0 0 1-2.349 2.349 2.35 2.35 0 0 1-2.349-2.349 2.35 2.35 0 0 1 2.35-2.349 2.35 2.35 0 0 1 2.348 2.349M167.066 298.729a2.349 2.349 0 1 0 0-4.698 2.349 2.349 0 0 0 0 4.698"/><path fill="#E0E0E0" d="m242.161 289.695-.135-.036-158.085-47.178.495-.531 119.979-129.528 163.449 137.169-.774.252-124.92 39.852zM85.588 242.022l156.564 46.728 123.876-39.519-161.541-135.567L85.588 242.031z"/><path fill="#E0E0E0" d="m239.669 290.053-.189-.225-103.41-118.242 135.387-43.785.198.243 96.066 121.59-.621.198-127.413 40.212zM137.636 172.027l102.321 116.991 126.234-39.843-95.058-120.321-133.488 43.164z"/><path fill="#E0E0E0" d="m165.706 297.19-.054-.441c-6.894-58.221-20.142-168.957-20.916-171.306l-.621-.99 1.161.387 183.96 52.317-89.199 112.806-74.34 7.227zm-19.989-171.288c1.989 11.934 17.442 142.119 20.781 170.307l73.08-7.101 88.119-111.456z"/><path fill="#E0E0E0" d="m297.009 284.296-.243-.019-137.718-11.331-.117-.225c-9.558-18.675-40.689-79.748-40.032-81.62l.063-.19.189-.08 152.199-63.019.207.163 90.873 71.478-.27.351L297 284.286zm-137.385-12.213 136.971 11.276 64.593-83.745-89.964-70.766-151.398 62.685c1.143 4.266 24.165 49.994 39.807 80.55z"/><path fill="#E0E0E0" d="m262.314 300.123-.522-.162-139.536-42.867 119.943-154.278 34.929 55.8-.018.153zm-138.546-43.506 137.772 42.327 14.67-140.121-34.083-54.45-118.35 152.244zM228.682 321.706a15.4 15.4 0 0 0-2.196 5.31l-2.97.279v5.742l2.97.279a15.3 15.3 0 0 0 2.196 5.31l-1.899 2.286 4.059 4.059 2.286-1.899a15.4 15.4 0 0 0 5.31 2.196l.279 2.97h5.742l.279-2.97a15.3 15.3 0 0 0 5.31-2.196l2.286 1.899 4.068-4.059-1.899-2.286a15.4 15.4 0 0 0 2.196-5.31l2.97-.279v-5.742l-2.97-.279a15.3 15.3 0 0 0-2.196-5.31l1.899-2.286-4.059-4.059-2.286 1.899a15.4 15.4 0 0 0-5.31-2.196l-.279-2.97h-5.751l-.279 2.97a15.3 15.3 0 0 0-5.31 2.196l-2.286-1.899-4.059 4.068 1.899 2.286zm18.423 2.97c3.042 3.042 3.042 7.965 0 10.998-3.042 3.042-7.965 3.042-10.998 0s-3.042-7.965 0-10.998c3.042-3.042 7.965-3.042 10.998 0"/><path fill="#F5F5F5" d="M408.077 410.642c0 3.051-84.168 5.517-187.983 5.517s-187.983-2.475-187.983-5.517 84.168-5.517 187.983-5.517 187.983 2.475 187.983 5.517"/><path fill="#05F" d="M159.74 33.354c17.793-3.978 35.442 7.209 39.42 25.002s-7.209 35.442-25.002 39.42-35.442-7.21-39.42-25.002l-.027-.117c-3.906-17.757 7.281-35.334 25.029-39.303"/><path fill="#fff" d="M159.74 33.354c17.793-3.978 35.442 7.209 39.42 25.002s-7.209 35.442-25.002 39.42-35.442-7.21-39.42-25.002l-.027-.117c-3.906-17.757 7.281-35.334 25.029-39.303" opacity=".5"/><path fill="#000" d="M196.524 51.04c-.603.962-1.125-.36-3.249.72a18.3 18.3 0 0 1-6.579 1.565l-.477.918c-.441.963-4.491-.603-4.491-2.169s0 0 3.132-.918 0 0 .279-2.25-.882-1.242-2.169-2.808a2.09 2.09 0 0 0-2.925-.405c-.963.567-.846 1.647-1.764 1.89-.927.243-.522.801-.927 1.08-.405.28-1.044 0-1.566 0s-1.206-.44-1.521 0c-.324.441-.243.558-.324.801a5 5 0 0 1-1.044 0c-.243 0-.522-.324-.522-.522a1 1 0 0 1 0-.405c.171-.396.396-.765.684-1.08a1.055 1.055 0 0 1 1.161-.324 1.09 1.09 0 0 0-.324-1.044h1.287c.324 0 1.242-2.646 1.323-3.05a.97.97 0 0 0-.441-.847c-.36-.198-.801 0-1.242 0s-1.368-1.242-2.205-1.125a2.2 2.2 0 0 0-.603.28l-.999.72c-.171.071-.324.18-.441.323a4 4 0 0 0 0 .64.53.53 0 0 1-.36.404c.765 0-.279.765-.441.801-.801.28-2.367-.279-3.285-.36a.63.63 0 0 1-.477 0 1.2 1.2 0 0 1 0-.36c-.243-.558-.441-1.16-.639-1.728-.198-.558-.639-2.61.36-3.168s2.124 0 2.448-1.044a.75.75 0 0 1 .198-.324c.279-.243.603.324.558.72a5.3 5.3 0 0 0 0 1.926c.243.64 1.08 1.044 1.566.64-.324-.478.324-1.045.882-1.045s1.206.28 1.728 0c.459-.288.684-.837.558-1.368a3.6 3.6 0 0 0-.684-1.44 2.09 2.09 0 0 1-2.043-.279c-.477-.36-.963-.999-1.521-.765.243-.26.45-.54.639-.846a10 10 0 0 0-1.125-.477c-.36-.198-.72-.603-.522-.999a.7.7 0 0 1 .279-.279 27.2 27.2 0 0 1 6.255.927c-.639 1.206-.801 3.411 2.205 4.491 4.374 1.566 0 0 4.014-2.169a32.6 32.6 0 0 1 8.586 5.94l-1.764 1.287c-1.845 1.242.603 1.881.603 1.881h2.529c1.368 0 1.242 0 1.323-.279a31.4 31.4 0 0 1 4.095 5.895z" opacity=".1"/><path fill="#000" d="M147.104 53.162c.018.162.018.324 0 .477-.243.846-1.485.558-2.322.8-1.764.559-1.323 3.655-3.051 4.456-.846.36-1.845 0-2.691.36a8 8 0 0 0-1.521 1.404 4.02 4.02 0 0 1-3.33.963 32.1 32.1 0 0 1 7.182-16.93c.315-.053.648-.053.963 0 .63.226 1.08.784 1.161 1.44a5.8 5.8 0 0 1 0 2.008l1.287-.963c.576.378.729 1.152.351 1.719-.009.018-.018.027-.027.045-.405.558-1.206.639-1.926.765-.72.117-1.521.522-1.566 1.206-.036.684.405 1.08.765 1.52.36.442.72 1.126.405 1.603l2.808-1.647c.162-.1.342-.162.522-.198.522.036.945.44.999.963zM149.147 48.797l-.243.765a3.2 3.2 0 0 0 2.205 0c.234-.099.441-.252.603-.44a2.37 2.37 0 0 0 .477-1.288 6.8 6.8 0 0 0 0-1.809 1.92 1.92 0 0 0-.963-1.44 1.16 1.16 0 0 0-1.566.441c-.243.522 0 1.161-.279 1.683s-.801.64-.963 1.08a.807.807 0 0 0 .576.981c.045.01.099.018.144.027zM163.151 35.235c-.999.846-2.61-.279-3.807.28-1.206.557-.963 1.16-1.647 1.286-.378.018-.747.018-1.125 0-.405 0-.801.28-.765.64a.9.9 0 0 0 .279.44l.999.918q.175.189.324.405a.84.84 0 0 1-.522 1.071c-.009 0-.027 0-.036.01a2.2 2.2 0 0 1-1.323 0 2.7 2.7 0 0 1-.801-.199c-.243 0-.405-.522-.243-.765l.279-.279c.261-.252.378-.612.324-.963a.77.77 0 0 0-.765-.684l-.522.243-1.728 1.044c-.801.441-1.809.927-2.61.522a.43.43 0 0 1-.36-.243v-.522a1.1 1.1 0 0 0 0-.639 31.7 31.7 0 0 1 10.629-4.455 29 29 0 0 1 3.726-.603c.243.927.324 1.962-.324 2.484zM156.374 43.623a.686.686 0 0 0-.927.603l.405.639v-.36c0 .36.441.72.765.441a.84.84 0 0 0 0-1.125zM170.927 53.08c-.522-.558-1.44-.36-2.25-.279-.801.081-1.809-.324-1.764-1.08.036-.765.846-.963 1.521-.999a2.01 2.01 0 0 0-1.881-2.124h-.207a2.5 2.5 0 0 1 0 2.007 1.203 1.203 0 0 1-1.566.657c-.036-.018-.081-.036-.117-.054-.999-.765.243-2.763-.72-3.573a1.95 1.95 0 0 0-1.647 0c-1.926.441-4.014 1.125-4.77 2.97 0 .198-1.602 0-2.088 0s-.765 1.485-.846 2.007a1.15 1.15 0 0 0 0 .882c0 .324.522.64.36.963-.162.324-.405.243-.558.441-.162.198 1.044 2.007 1.44 2.205.405.198 1.521 0 2.286.36.567.414.837 1.125.684 1.81h-.72c.387.99.054 2.105-.801 2.726a3.12 3.12 0 0 1 2.844.882s.36.405.603.405a.9.9 0 0 0 .441-.198 3.44 3.44 0 0 0 1.602-2.169h.801c0-.44 0-1.16-.477-.999-.477.162 0 0-.279.243s-1.044 0-1.08-.684a2.47 2.47 0 0 1 .558-1.44c.198-.243.36-.522.558-.8a3.08 3.08 0 0 1 1.683-1.405c1.242-.279 2.25 1.044 2.844 2.17.243.476.36 1.241 0 1.322s-.558-.198-.765 0c-.198.198 0 .64-.405.846-.405.207-.441 0-.639 0s-.441.918 0 1.404c.441.477.603-.279.918-.477.324-.198 1.521.324 2.25 0 .72-.324.603-.603.882-.882s2.169-.918 2.286-1.962-.405-1.125-.522-1.728.279-2.646-.477-3.41z" opacity=".2"/><path fill="#000" d="M147.267 60.903c.333.081.675.081.999 0 .477 0 2.043.441 1.404 1.323s-1.647-.999-2.484-.522c.477 0 .441.927.198 1.404s-.522 1.08-.198 1.521c.639-.279 1.287.324 2.007.477.72.162 1.809-.522 2.727-.36v-1.044c0-.36.684-.279.999-.522.324-.243.72-.522 1.044-.279s0-.8 0-1.16a6.3 6.3 0 0 1-.846-.919c-.198-.36 0-.927.243-1.044s.765 0 1.08 0a.86.86 0 0 0 .405-.765 8 8 0 0 1 0-.927h-.765a.643.643 0 0 1-.441.765 1.94 1.94 0 0 1-.963 0c.126-.936 0-1.89-.36-2.763h-.999c0 .405-.441.64-.846.64a2.1 2.1 0 0 1-.999-.523c-.198-.198-.441-.405-.72-.324s-.522.522-.477.918c0 1.44-.603 1.08-1.206 1.881a1.61 1.61 0 0 0 .198 2.205zM147.95 74.783a3.97 3.97 0 0 1-2.367-.324c-.324-.198-.72-.441-1.08-.243a.93.93 0 0 0-.405.963c0 .324.36.639.477.999a3.38 3.38 0 0 1 0 2.97 5.65 5.65 0 0 1-4.491-1.044 3.4 3.4 0 0 1-.36-.441c-.279-.64.603-1.368.441-2.007-.162-.64-1.404-1.125-.999-1.728s.765-.243 1.125-.405a.84.84 0 0 0 .378-1.125l-.018-.036a2.134 2.134 0 0 0-2.691.765c-.684 0-.882-1-.918-1.647-.036-.64-.477-1.602-1.161-1.368a.77.77 0 0 0-.441.603c-.522 1.52.72 2.97 1.845 4.014.297.225.504.558.558.918 0 .405-.243.846-.639.765l1.404 1.566c.117.153.18.333.198.522a.8.8 0 0 1 0 .36 19 19 0 0 0-1.08 1.602 30.8 30.8 0 0 1-2.889-8.02 34.4 34.4 0 0 1-.765-7.74c.225-.341.522-.611.882-.8.441 0 .963 0 1.368-.243.999-.28 1.44-1.566 2.448-1.962a2.06 2.06 0 0 1 2.25.639 2.93 2.93 0 0 1 .477 2.448 4 4 0 0 0-.243 2.007c.405 1.16 1.845 1.287 3.051 1.242a1.7 1.7 0 0 0 .918 1.809 1.2 1.2 0 0 0 1.512-.774c.027-.072.036-.153.054-.225.765 0 1.728.477 1.728 1.287a2.2 2.2 0 0 1-.882 1.206c-.324.405-.603.999-.279 1.404s1.404 0 1.683.684-.558 1.287-1.08 1.368z" opacity=".1"/><path fill="#000" d="M174.096 97.802h-1.044a2.33 2.33 0 0 1 .198-1.926c.441-.639 1.242-1.08 1.602-1.809.162-.486.378-.963.639-1.404.684-1.08 2.286-.999 3.573-.801a1.247 1.247 0 0 1 .513-1.683 4.8 4.8 0 0 1 2.007-.324 2.49 2.49 0 0 0 1.845-.558c0-.198.324-.477.558-.558h.558l3.609.441c0-.882-.963-1.368-1.809-1.44-.846-.081-1.845 0-2.25-.882a4.01 4.01 0 0 1-4.572 1.728.4.4 0 0 1-.324 0c-.36-.477.882-1.08.477-1.485l-1.728-.684c-.243 0-.522-.198-.639-.441s0-.882.36-1.323-.198-1.764-.441-2.646 0-2.169.999-2.169h.603c.162 0 .405-.639.477-.999.243-1.08 1.323-1.728 2.25-2.367.27-.216.531-.459.765-.72a4.64 4.64 0 0 0 1.44-3.132 6.3 6.3 0 0 0-1.962 1.881c-.639.72-1.602 1.323-2.448.882a2.445 2.445 0 0 1-1.647 2.646 2.36 2.36 0 0 1-2.727-1.44.92.92 0 0 1 0-1.044c.324-.099.675-.099.999 0a2.86 2.86 0 0 0 2.646-1.368 3.76 3.76 0 0 1-3.132-1.602 2.416 2.416 0 0 1 .765-3.213h-.801a2.6 2.6 0 0 1 2.088-1.962h1.485c.495-.09.873-.495.927-.999a1.75 1.75 0 0 1-.801-1.683 1.82 1.82 0 0 1 1.044-1.242.63.63 0 0 1-.603-.522c0-.414.279-.774.684-.882a2.8 2.8 0 0 1 1.287 0 4.26 4.26 0 0 1 2.844 1.368c.369.702.522 1.494.441 2.286v3.132a3.41 3.41 0 0 0 .927 2.808c.486.306 1.071.45 1.647.405a12.2 12.2 0 0 0 4.896-.999 3.7 3.7 0 0 0 1.962-1.602c.36-.765.495-1.611.405-2.448 0-1.683.324-4.374-1.404-5.418a1.52 1.52 0 0 0-1.647 0c-.324.243-.558.603-.918.72s-1.161-.198-1.647 0c-.477.198-.441.522-.684.846a.763.763 0 0 1-.927.405c-.36-.198 0-.801 0-1.242s-.684-1.728-.522-2.61.999-1.368 1.566-2.007a8.5 8.5 0 0 0 1.323-1.962c.522-.243 1.125 0 1.602.477.45.387 1.08.513 1.647.324.441.558-.243 1.602.405 2.043h.279a1 1 0 0 1 0 .684c0 .801.405 1.764 1.206 2.007h.324v-.243a4.01 4.01 0 0 0-.684-3.006 3.7 3.7 0 0 1-.279-.603 1.14 1.14 0 0 1 0-.603c.054-.234.135-.468.243-.684a1 1 0 0 1 0-.405c.279-.243.684 0 .999 0 .315-.063.612-.18.882-.36.405-.18.873-.18 1.287 0 .279.963.558 1.962.801 2.97 4.041 17.64-6.876 35.244-24.462 39.465zM169.208 87.415a4.7 4.7 0 0 0 0 2.007 3.42 3.42 0 0 1-2.565.405 3.57 3.57 0 0 0 1.764 4.455c-.54.441-1.26.576-1.926.36a5.9 5.9 0 0 1-1.683-1.125l-4.014-3.087c-.639.243-.243 1.242.405 1.566.639.324 1.404.36 1.728.963s0 1.81.36 2.448c.324.234.675.432 1.044.603.603.46.873 1.233.684 1.962v.522a31.8 31.8 0 0 1-14.355-4.212 5.4 5.4 0 0 0 0-.765c0-1.206 1.125-2.007 2.043-2.727a3.6 3.6 0 0 0 1.764-2.889c-1.566.405-2.169 2.367-3.492 3.213a4.7 4.7 0 0 1-1.125.522c-.666.342-1.296.738-1.881 1.206a32 32 0 0 1-8.307-8.226 4.46 4.46 0 0 0 .882-3.006c.36-.44.918.36 1.44.405s.918-.765 1.521-.8c.603-.037.846 1.727 1.764 2.042.918.324 1.206-.522 1.845-.603s1.404.522 2.169.28c2.205-.685.558-3.088.882-4.456.198-.639.999-.765 1.521-1.08a2.83 2.83 0 0 0 1.242-2.322 9.8 9.8 0 0 0-.441-2.646 2.8 2.8 0 0 1 .198-2.529c.846-.918 2.484-.324 3.654-.918 1.161-.603 1.161-1.728 2.007-2.367a4.28 4.28 0 0 1 2.61-.765c.243-.036.486-.036.72 0 .441.243.36.918.279 1.368a22.3 22.3 0 0 1-1.242 4.014c1.044.477 2.484.918 3.249 0 .135-.252.315-.486.522-.684a1.47 1.47 0 0 1 1.368 0c.36.801.765 1.566 1.161 2.286a4.69 4.69 0 0 0-4.689 3.051 1.9 1.9 0 0 1-.324.801 1.37 1.37 0 0 1-1.125.477 10.8 10.8 0 0 1-3.771-1.242c-1.287-.405-3.087 0-3.411 1.125 1.044-.36 1.926.72 2.925 1.125a6.8 6.8 0 0 0 1.809.324 13.6 13.6 0 0 1 4.329 1.125 2.91 2.91 0 0 0 1.809-2.484 5.36 5.36 0 0 0 4.248 2.25 6.93 6.93 0 0 0 0 4.014c.477.963 1.44 1.845 1.404 2.925a1.5 1.5 0 0 0-.999 1.125z" opacity=".2"/><path fill="#05F" d="M177.758 396.462c-2.888-3.627-7.829-5.508-12.41-4.716.099-5.256-2.151-10.512-6.012-14.076s-9.279-5.382-14.509-4.869c-.18-8.424-8.433-15.705-16.794-15.012v-76.797h-44.9v76.797c-8.361-.693-16.614 6.588-16.794 15.012-5.23-.513-10.647 1.305-14.508 4.869-3.862 3.564-6.103 8.82-6.013 14.076-4.571-.792-9.512 1.08-12.41 4.716-2.89 3.627-3.619 8.865-1.819 13.149h147.997c1.799-4.284 1.071-9.513-1.818-13.149z"/><path fill="#fff" d="M177.758 396.462c-2.888-3.627-7.829-5.508-12.41-4.716.099-5.256-2.151-10.512-6.012-14.076s-9.279-5.382-14.509-4.869c-.18-8.424-8.433-15.705-16.794-15.012v-76.797h-44.9v76.797c-8.361-.693-16.614 6.588-16.794 15.012-5.23-.513-10.647 1.305-14.508 4.869-3.862 3.564-6.103 8.82-6.013 14.076-4.571-.792-9.512 1.08-12.41 4.716-2.89 3.627-3.619 8.865-1.819 13.149h147.997c1.799-4.284 1.071-9.513-1.818-13.149z" opacity=".8"/><path fill="#05F" d="M64.836 160.031s-21.834 11.007-28.404 38.574c-4.788 20.106-3.339 58.05 5.292 61.101s9.594-20.448 9.666-28.8 7.902-18.549 14.877-19.161c0 0 1.368-44.091-1.43-51.714"/><path fill="#000" d="M68.103 165.502c-5.166 1.971-9.405 5.742-12.843 9.972a65 65 0 0 0-8.955 15.228 82 82 0 0 0-5.49 18.198 124 124 0 0 0-1.53 19.935c-.117 8.163-.315 16.668 2.87 24.363.127.306.63.171.505-.135-2.754-6.705-2.925-14.031-2.871-21.177.054-6.741.162-13.518 1.116-20.205 1.71-11.88 6.039-23.895 13.086-33.669 3.654-5.067 8.343-9.747 14.274-12.006.315-.126.18-.621-.135-.504h-.028" opacity=".2"/><path fill="#05F" d="M139.625 160.031s21.834 11.007 28.404 38.574c4.788 20.106 3.339 58.05-5.292 61.101-8.631 3.042-9.594-20.448-9.666-28.8s-7.902-18.549-14.868-19.161c0 0-1.368-44.091 1.431-51.714z"/><path fill="#000" d="M136.225 165.998c5.193 1.98 9.432 5.832 12.852 10.134a65.2 65.2 0 0 1 8.73 15.084 81.5 81.5 0 0 1 5.391 18.099c1.143 6.552 1.368 13.203 1.44 19.845.108 8.019.279 16.344-2.826 23.904-.126.306.378.441.504.135 2.79-6.795 2.934-14.229 2.871-21.474-.054-6.831-.18-13.689-1.17-20.457a81.6 81.6 0 0 0-5.139-18.792 68.4 68.4 0 0 0-8.406-15.345c-3.645-4.932-8.289-9.396-14.103-11.619-.315-.126-.45.378-.135.504z" opacity=".2"/><path fill="#05F" d="M132.12 243.819H71.802s-11.043-42.444-6.714-90.036a117.4 117.4 0 0 1 9.477-36.54c.072-.18.153-.36.234-.531 1.26-2.871 2.592-5.58 3.96-8.154A129.6 129.6 0 0 1 98.631 80.64a4.782 4.782 0 0 1 7.182 0 129.6 129.6 0 0 1 20.385 28.881 131 131 0 0 1 3.951 8.334l.225.513a117.9 117.9 0 0 1 8.991 35.415c4.32 47.619-7.227 90.036-7.227 90.036z"/><path fill="#fff" d="M132.12 243.819H71.802s-11.043-42.444-6.714-90.036a117.4 117.4 0 0 1 9.477-36.54c.072-.18.153-.36.234-.531 1.26-2.871 2.592-5.58 3.96-8.154A129.6 129.6 0 0 1 98.631 80.64a4.782 4.782 0 0 1 7.182 0 129.6 129.6 0 0 1 20.385 28.881 131 131 0 0 1 3.951 8.334l.225.513a117.9 117.9 0 0 1 8.991 35.415c4.32 47.619-7.227 90.036-7.227 90.036z" opacity=".5"/><path fill="#05F" d="M125.451 237.773H80.217v.693h45.234z"/><path fill="#2E353A" d="M133.497 259.975H72.513c-4.347-6.255.252-16.155.252-16.155h59.49s4.572 8.082 1.233 16.155z"/><path fill="#2E353A" d="M118.088 265.645H87.596c-2.15-3.132.126-8.083.126-8.083h29.745s2.286 4.033.621 8.083"/><path fill="#05F" d="M118.107 265.645H87.704c-6.155 3.267-21.464 11.07-19.322 24.282h69.84c2.142-13.212-13.95-21.024-20.106-24.282z"/><path fill="#2E353A" d="M140.319 287.137H65.754v5.751h74.565z"/><path fill="#05F" d="M126.179 109.531c-5.499 3.933-13.914 8.343-23.967 8.343a34.7 34.7 0 0 1-23.472-9.333 129 129 0 0 1 1.737-3.177l.28-.477a128 128 0 0 1 17.855-24.255 4.78 4.78 0 0 1 7.182 0 128 128 0 0 1 17.892 24.327l.279.495a124 124 0 0 1 2.214 4.086z"/><path fill="#000" d="M123.976 105.464a37.3 37.3 0 0 1-5.598 3.321 37.06 37.06 0 0 1-22.213 3.186 37.75 37.75 0 0 1-15.687-6.588l.28-.477a36.6 36.6 0 0 0 6.03 3.555 36.38 36.38 0 0 0 22.104 2.871 37.1 37.1 0 0 0 14.805-6.354z" opacity=".2"/><path fill="#05F" d="M131.122 161.379c-2.763-27.918-4.923-39.096-5.175-40.32a42 42 0 0 0 2.871-1.701 55 55 0 0 0 1.512-.981l-.225-.513c-.513.342-1.035.72-1.584 1.035-5.742 3.627-14.976 7.956-26.091 7.956a42.8 42.8 0 0 1-24.498-7.695 43 43 0 0 1-3.177-2.43 10 10 0 0 0-.234.531 44 44 0 0 0 5.463 3.897c-.306 1.548-2.44 12.816-5.157 40.212-2.151 21.402-.19 42.696 1.809 56.79a252 252 0 0 0 4.896 25.713.26.26 0 0 0 .252.198h.063a.273.273 0 0 0 .189-.315 254 254 0 0 1-4.887-25.668c-1.998-14.058-3.924-35.307-1.81-56.655 2.629-26.532 4.708-37.908 5.113-40.014a43 43 0 0 0 22.005 6.03 48.76 48.76 0 0 0 22.977-6.075c.36 1.827 2.466 13.14 5.139 40.104 2.115 21.348.189 42.588-1.809 56.655a249 249 0 0 1-4.887 25.668.265.265 0 0 0 .189.315h.063a.26.26 0 0 0 .252-.198 252 252 0 0 0 4.896-25.713c2.025-14.121 3.96-35.415 1.836-56.808z"/><path fill="#05F" d="M102.466 191.016c-11.034 0-19.99-8.937-19.99-19.98 0-11.034 8.938-19.989 19.981-19.989 11.034 0 19.989 8.937 19.989 19.98v.018c-.009 11.025-8.946 19.971-19.98 19.98zm0-39.438c-10.746 0-19.458 8.712-19.458 19.458s8.712 19.458 19.458 19.458 19.458-8.712 19.458-19.458c-.009-10.746-8.721-19.449-19.458-19.458"/><path fill="#05F" d="M117.594 171.037c0 8.361-6.777 15.129-15.129 15.129h-.351a14.96 14.96 0 0 1-7.272-2.052 15.3 15.3 0 0 1-4.41-3.888 15.04 15.04 0 0 1-3.096-9.18c0-.585.036-1.179.099-1.755a15.16 15.16 0 0 1 13.266-13.266 17 17 0 0 1 1.764-.099c8.217.009 14.922 6.561 15.12 14.769v.342z"/><path fill="#fff" d="m111.636 159.03-21.204 21.204a15.04 15.04 0 0 1-3.096-9.18c0-.585.036-1.179.099-1.755l13.266-13.266a17 17 0 0 1 1.764-.099c3.312 0 6.534 1.08 9.171 3.096M117.586 170.688l-15.48 15.48a14.96 14.96 0 0 1-7.272-2.052l20.691-20.682a14.96 14.96 0 0 1 2.061 7.263z" opacity=".1"/><path fill="#05F" d="M148.589 326.41h-86.93v83.376h86.93z"/><path fill="#fff" d="M148.589 326.41h-86.93v83.376h86.93z" opacity=".4"/><path fill="#fff" d="M148.571 326.41H89.324v83.376h59.247z" opacity=".4"/><path fill="#05F" d="M145.61 330.676H92.285v10.323h53.325zM145.61 343.582H92.285v10.323h53.325zM145.61 356.488H92.285v10.323h53.325zM145.61 369.395H92.285v10.323h53.325zM145.61 382.301H92.285v10.323h53.325zM145.61 395.215H92.285v10.323h53.325zM86.229 330.676H64.764v10.323h21.465zM86.229 343.582H64.764v10.323h21.465zM86.229 356.488H64.764v10.323h21.465zM86.229 369.395H64.764v10.323h21.465zM86.229 382.301H64.764v10.323h21.465zM86.229 395.215H64.764v10.323h21.465z"/><path fill="#fff" d="M143 332.016h-1.242v7.641H143zM140.605 332.016h-1.242v7.641h1.242zM138.213 332.016h-1.242v7.641h1.242zM135.818 332.016h-1.242v7.641h1.242zM133.416 332.016h-1.242v7.641h1.242zM143 344.922h-1.242v7.632H143zM140.605 344.922h-1.242v7.632h1.242zM138.213 344.922h-1.242v7.632h1.242zM135.818 344.922h-1.242v7.632h1.242zM133.416 344.922h-1.242v7.632h1.242zM143 357.84h-1.242v7.632H143zM140.605 357.84h-1.242v7.632h1.242zM138.213 357.84h-1.242v7.632h1.242zM135.818 357.84h-1.242v7.632h1.242zM133.416 357.84h-1.242v7.632h1.242zM143 370.742h-1.242v7.641H143zM140.605 370.742h-1.242v7.641h1.242zM138.213 370.742h-1.242v7.641h1.242zM135.818 370.742h-1.242v7.641h1.242zM133.416 370.742h-1.242v7.641h1.242zM143 383.648h-1.242v7.632H143zM140.605 383.648h-1.242v7.632h1.242zM138.213 383.648h-1.242v7.632h1.242zM135.818 383.648h-1.242v7.632h1.242zM133.416 383.648h-1.242v7.632h1.242zM143 396.555h-1.242v7.641H143zM140.605 396.555h-1.242v7.641h1.242zM138.213 396.555h-1.242v7.641h1.242zM135.818 396.555h-1.242v7.641h1.242zM133.416 396.555h-1.242v7.641h1.242z" opacity=".3"/><path fill="#fff" d="M98.485 335.832c0 .702-.567 1.269-1.269 1.269a1.27 1.27 0 0 1-1.269-1.269 1.268 1.268 0 1 1 2.538 0M106.47 335.832c0 .702-.567 1.269-1.269 1.269a1.27 1.27 0 0 1-1.269-1.269 1.268 1.268 0 1 1 2.538 0" opacity=".2"/><path fill="#fff" d="M114.452 335.832c0 .702-.567 1.269-1.269 1.269a1.27 1.27 0 0 1-1.269-1.269 1.268 1.268 0 1 1 2.538 0M98.485 348.738c0 .702-.567 1.269-1.269 1.269a1.27 1.27 0 0 1-1.269-1.269c0-.702.567-1.269 1.27-1.269.701 0 1.268.567 1.268 1.269" opacity=".4"/><path fill="#fff" d="M106.47 348.738c0 .702-.567 1.269-1.269 1.269a1.27 1.27 0 0 1-1.269-1.269c0-.702.567-1.269 1.269-1.269s1.269.567 1.269 1.269" opacity=".2"/><path fill="#fff" d="M114.452 348.738c0 .702-.567 1.269-1.269 1.269a1.27 1.27 0 0 1-1.269-1.269c0-.702.567-1.269 1.269-1.269s1.269.567 1.269 1.269" opacity=".4"/><path fill="#fff" d="M98.485 361.656c0 .702-.567 1.269-1.269 1.269a1.27 1.27 0 0 1-1.269-1.269c0-.702.567-1.269 1.27-1.269.701 0 1.268.567 1.268 1.269" opacity=".2"/><path fill="#fff" d="M106.47 361.656c0 .702-.567 1.269-1.269 1.269a1.27 1.27 0 0 1-1.269-1.269c0-.702.567-1.269 1.269-1.269s1.269.567 1.269 1.269" opacity=".4"/><path fill="#fff" d="M114.452 361.656c0 .702-.567 1.269-1.269 1.269a1.27 1.27 0 0 1-1.269-1.269c0-.702.567-1.269 1.269-1.269s1.269.567 1.269 1.269" opacity=".2"/><path fill="#fff" d="M98.485 374.562c0 .702-.567 1.269-1.269 1.269a1.27 1.27 0 0 1-1.269-1.269c0-.702.567-1.269 1.27-1.269.701 0 1.268.567 1.268 1.269" opacity=".4"/><path fill="#fff" d="M106.47 374.562c0 .702-.567 1.269-1.269 1.269a1.27 1.27 0 0 1-1.269-1.269c0-.702.567-1.269 1.269-1.269s1.269.567 1.269 1.269M114.452 374.562c0 .702-.567 1.269-1.269 1.269a1.27 1.27 0 0 1-1.269-1.269c0-.702.567-1.269 1.269-1.269s1.269.567 1.269 1.269M98.485 387.464c0 .702-.567 1.269-1.269 1.269a1.27 1.27 0 0 1-1.269-1.269c0-.702.567-1.269 1.27-1.269.701 0 1.268.567 1.268 1.269" opacity=".2"/><path fill="#fff" d="M106.47 387.464c0 .702-.567 1.269-1.269 1.269a1.27 1.27 0 0 1-1.269-1.269c0-.702.567-1.269 1.269-1.269s1.269.567 1.269 1.269M114.452 387.464c0 .702-.567 1.269-1.269 1.269a1.27 1.27 0 0 1-1.269-1.269c0-.702.567-1.269 1.269-1.269s1.269.567 1.269 1.269M98.485 400.382c0 .702-.567 1.269-1.269 1.269a1.27 1.27 0 0 1-1.269-1.269c0-.702.567-1.269 1.27-1.269.701 0 1.268.567 1.268 1.269" opacity=".4"/><path fill="#fff" d="M106.47 400.382c0 .702-.567 1.269-1.269 1.269a1.27 1.27 0 0 1-1.269-1.269c0-.702.567-1.269 1.269-1.269s1.269.567 1.269 1.269" opacity=".2"/><path fill="#fff" d="M114.452 400.382c0 .702-.567 1.269-1.269 1.269a1.27 1.27 0 0 1-1.269-1.269c0-.702.567-1.269 1.269-1.269s1.269.567 1.269 1.269" opacity=".4"/><path fill="#000" d="M89.324 326.41H61.658v83.376h27.666z" opacity=".3"/><path fill="#05F" d="M358.641 347.102h-43.776v62.568h43.776z"/><path fill="#000" d="M358.632 347.102h-14.247v62.685h14.247z" opacity=".2"/><path fill="#05F" d="M296.335 365.199h-39.249v44.586h39.249z"/><path fill="#000" d="M296.344 365.199h-12.78v44.586h12.78z" opacity=".2"/><path fill="#05F" d="M418.097 310.805h-42.786v98.982h42.786z"/><path fill="#000" d="M418.096 310.805h-13.932v98.982h13.932z" opacity=".2"/><path fill="#05F" d="M384.372 198.414h-32.94a5.39 5.39 0 0 0-5.391 5.391v17.784a5.39 5.39 0 0 0 5.391 5.391h7.875l.063 5.382 5.931-5.382h19.062a5.39 5.39 0 0 0 5.391-5.391v-17.784a5.39 5.39 0 0 0-5.391-5.391z"/><path fill="#fff" d="m363.851 209.884-5.193 2.43 5.193 2.421v1.953l-6.939-3.366v-2.034l6.939-3.366v1.962M379.656 211.298v2.034l-6.939 3.366v-1.953l5.193-2.421-5.193-2.43v-1.953l6.939 3.366zM369.493 206.57l-3.384 11.691h1.692l3.384-11.691z"/><path fill="#05F" d="M376.776 197.2h-16.92a.223.223 0 0 1-.225-.225c0-.126.099-.225.225-.225h16.92c.126 0 .225.099.225.225a.223.223 0 0 1-.225.225M381.437 197.208h-2.673a.223.223 0 0 1-.225-.225c0-.126.099-.225.225-.225h2.673c.126 0 .225.099.225.225a.223.223 0 0 1-.225.225M386.055 75.113h-91.08a4.446 4.446 0 0 0-4.446 4.446v75.168a4.446 4.446 0 0 0 4.446 4.446h91.08a4.445 4.445 0 0 0 4.446-4.446V79.559a4.446 4.446 0 0 0-4.446-4.446"/><path fill="#fff" d="M386.055 75.113h-91.08a4.446 4.446 0 0 0-4.446 4.446v75.168a4.446 4.446 0 0 0 4.446 4.446h91.08a4.445 4.445 0 0 0 4.446-4.446V79.559a4.446 4.446 0 0 0-4.446-4.446" opacity=".5"/><path fill="#05F" d="M294.697 75.113h91.719a4.1 4.1 0 0 1 4.095 4.095v10.566h-99.972V79.28a4.17 4.17 0 0 1 4.167-4.167z"/><path fill="#fff" d="M384.859 83.509a3.205 3.205 0 0 1-3.204 3.204 3.2 3.2 0 0 1-3.204-3.204 3.2 3.2 0 0 1 3.204-3.204 3.2 3.2 0 0 1 3.204 3.204M375.76 83.509a3.205 3.205 0 0 1-3.204 3.204 3.2 3.2 0 0 1-3.204-3.204 3.2 3.2 0 0 1 3.204-3.204 3.2 3.2 0 0 1 3.204 3.204M366.67 83.509a3.205 3.205 0 0 1-3.204 3.204 3.2 3.2 0 0 1-3.204-3.204 3.2 3.2 0 0 1 3.204-3.204 3.2 3.2 0 0 1 3.204 3.204" opacity=".5"/><path fill="#fff" d="M364.302 102.023h-51.273v2.988h51.273z" opacity=".6"/><path fill="#263238" d="M350.523 108.484H313.83v2.988h36.693z" opacity=".6"/><path fill="#05F" d="M378.163 102.023h-10.089v2.988h10.089zM309.474 102.023h-10.089v2.988h10.089zM364.302 115.648h-51.273v2.988h51.273z"/><path fill="#fff" d="M378.163 115.648h-10.089v2.988h10.089z" opacity=".6"/><path fill="#05F" d="M309.474 115.648h-10.089v2.988h10.089zM364.302 144.062h-51.273v2.988h51.273z"/><path fill="#fff" d="M378.163 144.062h-10.089v2.988h10.089z" opacity=".6"/><path fill="#05F" d="M364.302 122.84h-51.273v2.988h51.273z"/><path fill="#263238" d="M378.163 122.84h-10.089v2.988h10.089zM309.474 122.84h-10.089v2.988h10.089z" opacity=".6"/><path fill="#05F" d="M378.909 108.602h-24.372v2.988h24.372z"/><path fill="#fff" d="M349.722 129.105h-36.693v2.988h36.693z" opacity=".6"/><path fill="#05F" d="M378.108 129.223h-24.372v2.988h24.372z"/><path fill="#263238" d="M331.371 135.594h-18.342v2.988h18.342z" opacity=".6"/><path fill="#05F" d="M148.627 133.65v132.435a4.13 4.13 0 0 0 4.131 4.131h181.818V133.659c0-1.224-.99-2.214-2.214-2.214h-181.53c-1.224 0-2.205.99-2.205 2.205"/><path fill="#fff" d="M330.553 131.445H152.65a4.023 4.023 0 0 0-4.023 4.023v130.734a4.023 4.023 0 0 0 4.023 4.023h177.903a4.023 4.023 0 0 0 4.023-4.023V135.468a4.023 4.023 0 0 0-4.023-4.023" opacity=".9"/><path fill="#05F" d="M150.922 131.445h181.782a1.87 1.87 0 0 1 1.872 1.872v9.27H148.627v-8.838a2.293 2.293 0 0 1 2.295-2.295z"/><path fill="#fff" d="M331.749 136.55a2.372 2.372 0 0 1-2.781 2.79 2.355 2.355 0 0 1-1.854-1.854 2.372 2.372 0 0 1 2.781-2.79c.927.18 1.683.936 1.854 1.854M325.036 136.55a2.372 2.372 0 0 1-2.781 2.79 2.355 2.355 0 0 1-1.854-1.854 2.372 2.372 0 0 1 2.781-2.79c.927.18 1.683.936 1.854 1.854M318.314 136.55a2.372 2.372 0 0 1-2.781 2.79 2.355 2.355 0 0 1-1.854-1.854 2.372 2.372 0 0 1 2.781-2.79c.927.18 1.683.936 1.854 1.863z" opacity=".5"/><path fill="#05F" d="M320.906 211.06a106 106 0 0 0-8.199-16.875c-1.782-2.979-4.014-6.102-7.551-7.128-4.365-1.269-9.081 1.206-11.997 4.446-2.925 3.231-4.707 7.209-7.515 10.53s-7.263 6.048-11.736 5.166c-4.527-.891-8.181-5.265-12.726-4.437-4.482.819-6.714 6.372-11.268 6.732-3.339.261-6.003-2.43-7.839-4.995-3.276-4.563-5.895-9.585-9.954-13.59s-10.107-6.921-15.912-5.652c-3.969.864-7.173 3.519-9.819 6.372-4.293 4.626-7.605 10.008-9.702 15.768-.882 2.439-1.953 5.319-4.653 6.021-2.484.639-4.995-1.017-6.516-2.925s-2.556-4.185-4.518-5.715c-4.086-3.186-10.737-1.755-14.499 1.755s-5.355 8.451-6.822 13.176v20.637h161.298l-.054-29.277z"/><path fill="#fff" d="M320.906 211.06a106 106 0 0 0-8.199-16.875c-1.782-2.979-4.014-6.102-7.551-7.128-4.365-1.269-9.081 1.206-11.997 4.446-2.925 3.231-4.707 7.209-7.515 10.53s-7.263 6.048-11.736 5.166c-4.527-.891-8.181-5.265-12.726-4.437-4.482.819-6.714 6.372-11.268 6.732-3.339.261-6.003-2.43-7.839-4.995-3.276-4.563-5.895-9.585-9.954-13.59s-10.107-6.921-15.912-5.652c-3.969.864-7.173 3.519-9.819 6.372-4.293 4.626-7.605 10.008-9.702 15.768-.882 2.439-1.953 5.319-4.653 6.021-2.484.639-4.995-1.017-6.516-2.925s-2.556-4.185-4.518-5.715c-4.086-3.186-10.737-1.755-14.499 1.755s-5.355 8.451-6.822 13.176v20.637h161.298l-.054-29.277z" opacity=".3"/><path fill="#05F" d="M321.229 210.968c-1.548-4.05-3.33-8.01-5.355-11.844-1.764-3.339-3.582-7.011-6.282-9.711-2.394-2.394-5.58-3.501-8.928-2.817-3.555.72-6.552 3.078-8.766 5.868-2.529 3.195-4.284 6.975-7.074 9.972s-6.849 5.292-10.989 4.401c-3.402-.729-6.048-3.267-9.369-4.203-2.97-.837-5.499.27-7.749 2.187-2.394 2.043-4.851 4.986-8.379 4.23-3.942-.837-6.318-5.121-8.343-8.217-4.185-6.381-8.604-13.086-16.281-15.48-3.456-1.08-7.128-.981-10.44.531-3.474 1.584-6.273 4.383-8.694 7.263a47 47 0 0 0-6.48 9.999c-.801 1.674-1.44 3.393-2.106 5.112-.612 1.602-1.395 3.402-2.916 4.338-2.007 1.224-4.347.405-6.012-.999-1.494-1.26-2.43-2.997-3.555-4.563-1.89-2.637-4.419-4.257-7.713-4.365-3.051-.099-6.183.981-8.604 2.826-2.853 2.187-4.689 5.418-6.003 8.703-.711 1.773-1.278 3.591-1.845 5.409-.126.414.522.594.648.18 2.16-6.957 5.202-14.742 13.248-16.245 3.843-.72 7.263.531 9.585 3.69 1.926 2.619 3.582 5.868 7.092 6.561 3.105.603 5.166-1.701 6.3-4.293.684-1.575 1.206-3.213 1.899-4.788a46 46 0 0 1 2.781-5.301c2.097-3.447 4.644-6.714 7.614-9.45s6.588-4.734 10.719-4.671c8.487.126 14.31 6.975 18.603 13.482 2.952 4.482 7.533 13.617 14.346 10.44 2.655-1.233 4.356-3.807 6.849-5.274 3.339-1.962 6.588-.297 9.63 1.395s5.796 2.862 9.171 2.124 6.39-3.087 8.541-5.796c2.52-3.177 4.284-6.903 7.02-9.918 2.511-2.763 6.219-4.968 10.071-4.653s6.651 3.537 8.613 6.714c2.205 3.564 4.149 7.299 5.895 11.106.936 2.052 1.809 4.14 2.61 6.246.153.405.81.225.648-.18z"/><path fill="#000" d="M159.283 165.655v74.682c0 .18.153.342.342.342h154.8c2.07 0 4.212.171 6.273 0h.27c.432 0 .432-.675 0-.675H162.037c-.657 0-1.503-.144-2.151 0-.081.018-.18 0-.27 0l.342.342v-74.682c0-.432-.675-.432-.675 0z" opacity=".3"/><path fill="#000" d="M189.361 164.097v76.239c0 .432.675.432.675 0v-76.239c0-.432-.675-.432-.675 0M215.588 164.097v76.239c0 .432.675.432.675 0v-76.239c0-.432-.675-.432-.675 0M241.812 164.097v76.239c0 .432.675.432.675 0v-76.239c0-.432-.675-.432-.675 0M268.039 164.097v76.239c0 .432.675.432.675 0v-76.239c0-.432-.675-.432-.675 0M294.256 164.097v76.239c0 .432.675.432.675 0v-76.239c0-.432-.675-.432-.675 0M320.627 164.097v76.239c0 .432.675.432.675 0v-76.239c0-.432-.675-.432-.675 0" opacity=".3"/><path fill="#000" d="M159.238 223.913h161.73c.432 0 .432-.675 0-.675h-161.73c-.432 0-.432.675 0 .675M159.238 205.019h161.73c.432 0 .432-.675 0-.675h-161.73c-.432 0-.432.675 0 .675M159.238 186.128h161.73c.432 0 .432-.675 0-.675h-161.73c-.432 0-.432.675 0 .675M159.238 167.23h161.73c.432 0 .432-.675 0-.675h-161.73c-.432 0-.432.675 0 .675" opacity=".3"/><path fill="#05F" d="M169.481 254.332a2.547 2.547 0 1 0 0-5.094 2.547 2.547 0 0 0 0 5.094"/><path fill="#263238" d="M175.367 250.804h46.431c.432 0 .432-.675 0-.675h-46.431c-.432 0-.432.675 0 .675M175.367 253.898h25.569c.432 0 .432-.675 0-.675h-25.569c-.432 0-.432.675 0 .675"/><path fill="#05F" d="M242.272 254.332a2.547 2.547 0 1 0 0-5.094 2.547 2.547 0 0 0 0 5.094"/><path fill="#263238" d="M248.158 250.804h46.431c.432 0 .432-.675 0-.675h-46.431c-.432 0-.432.675 0 .675M248.158 253.898h25.569c.432 0 .432-.675 0-.675h-25.569c-.432 0-.432.675 0 .675"/><path fill="#E9B376" d="m329.247 388.664 2.907 16.776-6.894 2.781-5.733-17.604z"/><path fill="#263238" d="M330.012 404.062c-.468 1.26-1.584 1.872-2.781 1.638l-.801-1.134c-.693-.972-1.656-1.323-2.709-.612-.522.351-.963 1.35-.909 2.583.09 2.223-.792 3.645-.792 3.645s-3.771 5.067-5.301 6.543c-.909.882-2.106 2.115-2.286 3.663a6.8 6.8 0 0 0 0 1.485c.054.45.486 1.305.495 1.323l12.78-6.498s.918-1.422 1.485-1.683c1.008-.468 1.881.171 1.881.171l4.662-2.331s-.279-.765-.675-1.872c-.18-.504-.387-1.071-.603-1.674-.936-2.583-2.016-5.886-2.286-6.615-.477-1.278-2.16 1.35-2.16 1.35z"/><path fill="#05F" d="M319.924 412.811a.2.2 0 0 1 .207-.126c.405.036.792.18 1.134.423.18.135-.009.441-.198.306a2 2 0 0 0-.999-.378c-.117-.009-.189-.117-.144-.225M320.642 411.775a.2.2 0 0 1 .207-.126c.405.036.792.18 1.134.423.18.135-.009.441-.198.306a2 2 0 0 0-.999-.378c-.117-.009-.189-.117-.144-.225M321.408 410.768a.2.2 0 0 1 .207-.126c.405.036.792.18 1.134.423.18.135-.009.441-.198.306a2 2 0 0 0-.999-.378c-.117-.009-.189-.117-.144-.225"/><path fill="#fff" d="M314.416 421.199c0 .225.018.468.045.72.054.45.486 1.305.495 1.323l12.78-6.498s.918-1.422 1.485-1.683c1.008-.468 1.881.171 1.881.171l4.662-2.331s-.279-.765-.675-1.872l-.099-.279z" opacity=".2"/><path fill="#05F" d="m321.787 411.001-.207-.045c-.342-.072-1.503-.342-1.917-.657-.432-.324-.711-.774-.765-1.242-.036-.261.027-.603.297-.756.261-.153.558-.054.774.063.414.216.792.585 1.098 1.08.27.432.459.909.648 1.368l.081.198zm-2.304-2.556a.3.3 0 0 0-.18.045c-.171.099-.207.351-.18.54.045.405.297.801.675 1.089.27.207.981.423 1.629.567-.153-.387-.324-.783-.549-1.134-.288-.459-.63-.801-1.008-.999a.9.9 0 0 0-.378-.108z"/><path fill="#05F" d="m321.561 411.046-.018-.216c-.036-.495-.072-1.008-.009-1.512.063-.576.234-1.071.522-1.449.198-.27.423-.405.675-.387.306.027.504.306.594.558.153.441.099.972-.144 1.449-.243.468-1.161 1.206-1.44 1.431l-.171.135zm1.125-3.339c-.198 0-.36.189-.45.297-.261.351-.414.801-.477 1.341-.045.414-.027.846 0 1.26.513-.414 1.062-.918 1.215-1.224.216-.423.27-.891.135-1.278-.063-.18-.207-.387-.396-.405h-.027z"/><path fill="#E9B376" d="m307.088 385.074 2.907 16.776-6.894 2.781-5.724-17.595z"/><path fill="#263238" d="M307.863 400.472c-.468 1.26-1.584 1.872-2.781 1.638l-.801-1.134c-.693-.972-1.656-1.323-2.709-.612-.522.351-.963 1.35-.918 2.583.09 2.223-.792 3.645-.792 3.645s-3.771 5.067-5.301 6.543c-.909.882-2.106 2.115-2.286 3.663a6.8 6.8 0 0 0 0 1.485c.054.45.486 1.305.495 1.323l12.78-6.498s.918-1.422 1.485-1.683c1.008-.468 1.881.171 1.881.171l4.662-2.331s-.279-.765-.675-1.872c-.18-.504-.387-1.071-.603-1.674-.936-2.583-2.016-5.886-2.286-6.615-.477-1.278-2.16 1.35-2.16 1.35z"/><path fill="#05F" d="M297.773 409.221a.2.2 0 0 1 .207-.126c.405.036.792.18 1.134.423.18.135-.009.441-.198.306a2 2 0 0 0-.999-.378c-.117-.009-.189-.117-.144-.225M298.484 408.186a.2.2 0 0 1 .207-.126c.405.036.792.18 1.134.423.18.135-.009.441-.198.306a2 2 0 0 0-.999-.378c-.117-.009-.189-.117-.144-.225M299.25 407.178a.2.2 0 0 1 .207-.126c.405.036.792.18 1.134.423.18.135-.009.441-.198.306a2 2 0 0 0-.999-.378c-.117-.009-.189-.117-.144-.225"/><path fill="#fff" d="M292.258 417.617c0 .225.018.468.045.72.054.45.486 1.305.495 1.323l12.78-6.498s.918-1.422 1.485-1.683c1.008-.468 1.881.171 1.881.171l4.662-2.331s-.279-.765-.675-1.872l-.099-.279z" opacity=".2"/><path fill="#05F" d="m299.629 407.423-.207-.045c-.342-.072-1.503-.342-1.917-.657-.432-.324-.711-.774-.765-1.242-.036-.261.027-.603.297-.756.261-.153.558-.054.774.063.414.216.792.585 1.098 1.08.27.432.459.909.648 1.368l.081.198zm-2.304-2.556a.3.3 0 0 0-.18.045c-.171.099-.207.351-.18.54.045.405.297.801.675 1.089.27.207.981.423 1.629.567-.153-.387-.324-.783-.549-1.134-.288-.459-.63-.801-1.008-.999a.9.9 0 0 0-.378-.108z"/><path fill="#05F" d="m299.403 407.456-.018-.216c-.036-.495-.072-1.008-.009-1.512.063-.585.234-1.071.522-1.449.198-.27.45-.405.666-.387.306.027.504.306.594.558.153.441.099.972-.144 1.449-.243.468-1.161 1.206-1.44 1.431l-.171.135zm1.125-3.339c-.198 0-.36.189-.45.297-.261.351-.414.801-.477 1.341-.045.414-.027.846 0 1.26.513-.414 1.062-.918 1.215-1.224.216-.423.27-.891.135-1.278-.063-.18-.198-.387-.396-.405h-.027z"/><path fill="#263238" d="M362.682 313.118s-16.623 16.254-25.263 24.327-35.829 6.876-35.829 6.876l10.26 52.362-14.094 1.701s-13.293-38.853-18.45-59.634c-.747-3.015.648-7.56 2.007-9.477 5.697-8.019 47.979-9.378 47.979-9.378l.927-5.643 32.454-1.143z"/><path fill="#000" d="M303.652 354.867s-7.443-13.113-9.036-18.36c-1.584-5.247-1.098-7.209 2.808-8.793s31.572-4.905 31.572-4.905l.441-2.286 5.706 6.228s-32.715 2.187-32.346 7.56.855 20.556.855 20.556" opacity=".2"/><path fill="#263238" d="M362.682 313.117s3.42 20.196-3.555 25.362c-6.66 4.941-34.803 7.884-34.803 7.884l8.64 52.65-13.797 2.421s-13.419-40.14-18.585-60.912c-.747-3.015-.108-6.894 1.26-8.811 5.697-8.019 47.601-10.458 47.601-10.458z"/><path fill="#000" d="M324.325 346.373s-2.205-3.204-3.87-4.518c0 0 4.77 1.584 5.679 4.41z" opacity=".2"/><path fill="#E9B376" d="m296.425 313.586 3.024 4.5s19.017-6.426 21.258-8.586c2.241-2.151 5.031-21.528 5.031-21.528v-13.734l.225-9.945s-7.884 1.917-8.514 8.253c-.189 1.872-3.564 29.763-3.564 29.763l-17.469 11.286z"/><path fill="#263238" d="M302.643 324.848h27.711c0 1.071-1.188 1.917-2.637 1.917h-45.135c-1.44-.009-2.592-.864-2.592-1.917z"/><path fill="#263238" d="M282.169 326.654h25.317c.441 0 .792-.288.783-.639a.8.8 0 0 0-.036-.198l-11.259-25.821c-.288-.738-1.134-1.242-2.097-1.242h-25.326c-.432 0-.774.279-.774.621 0 .072.018.144.045.207l11.259 25.821c.288.738 1.134 1.233 2.097 1.242z"/><path fill="#05F" d="M269.542 298.755h25.326c.963 0 1.809.504 2.097 1.242l10.836 24.84h22.554c0 1.071-1.188 1.917-2.637 1.917h-45.135c-.459 0-.882-.099-1.251-.252-.585-.198-1.062-.594-1.26-1.098l-11.259-25.821a.6.6 0 0 1-.045-.216c0-.342.351-.621.774-.621z"/><path fill="#fff" d="M284.752 312.497c.549 1.242 1.656 2.088 2.484 1.917s1.044-1.305.513-2.547-1.656-2.07-2.475-1.899c-.828.171-1.071 1.26-.522 2.529"/><path fill="#000" d="m296.965 299.997 10.836 24.84h-1.17l-11.754-26.091c.963 0 1.809.504 2.097 1.242z" opacity=".3"/><path fill="#fff" d="M269.542 298.755h25.326c.963 0 1.809.504 2.097 1.242l10.836 24.84h22.554c0 1.071-1.188 1.917-2.637 1.917h-45.135c-.459 0-.882-.099-1.251-.252-.585-.198-1.062-.594-1.26-1.098l-11.259-25.821a.6.6 0 0 1-.045-.216c0-.342.351-.621.774-.621z" opacity=".5"/><path fill="#05F" d="M327.223 319.984s-4.401-5.292-2.988-6.318l.513-49.005 1.224-.369 9.954-2.277 10.287-2.214 5.4 1.125 9.504 10.485s1.341 25.569 1.413 26.73c.09 1.422.774 19.953.774 19.953-16.281 3.573-36.342 3.168-36.081 1.908z"/><path fill="#E9B376" d="m332.541 262.862 4.149 6.21 7.623-9.396s-2.034-1.575-3.744-3.042c-1.359-1.161-5.04-5.814-5.04-5.814l-1.008.882-6.408 5.526s4.572 2.61 4.464 3.582c.18.846.378 1.71-.099 2.043"/><path fill="#000" d="M332.577 260.827c.18.945.279 1.143-.036 2.043 4.797-1.008 2.502-11.124 2.502-11.124h-.522l-6.408 5.526s4.608 2.628 4.464 3.555" opacity=".2"/><path fill="#263238" d="M315.739 241.846c-.657 2.736.189 8.199 3.798 6.147 3.609-2.043-2.673-10.845-3.798-6.147"/><path fill="#E9B376" d="M335.206 244.133c.891 6.849 1.53 10.692-1.233 14.787-4.149 6.165-12.906 4.725-15.831-1.737-2.628-5.814-3.645-16.038 2.484-19.944 6.039-3.852 13.689.045 14.58 6.894"/><path fill="#263238" d="M334.801 234.926c-1.647-3.546-6.867-4.68-9.108-2.268-.333.36 2.808.801 2.448.747l1.269 5.454c.387-.162 1.26.153 1.908 1.323 0 0 .387 7.353 3.906 9.792 6.669-4.788 4.905-14.445-.423-15.048"/><path fill="#E9B376" d="M338.967 249.263c-.207 1.845-1.251 3.42-2.466 4.347-1.827 1.395-3.609-.036-3.825-2.205-.198-1.953.513-5.031 2.7-5.571 2.151-.531 3.825 1.323 3.591 3.429"/><path fill="#263238" d="M325.899 247.948c.135.693-.126 1.323-.585 1.404-.45.081-.927-.414-1.062-1.107s.126-1.323.576-1.404.927.414 1.062 1.107zM319.133 249.397c.135.693-.126 1.323-.576 1.404s-.927-.414-1.062-1.107.126-1.323.576-1.404.927.414 1.062 1.107"/><path fill="#D58745" d="M321.265 248.59s-1.53 3.861-1.962 5.4c1.134.684 2.718-.036 2.718-.036z"/><path fill="#263238" d="M326.691 243.953a.34.34 0 0 1-.333.027c-1.341-.621-2.385 0-2.394 0a.336.336 0 0 1-.459-.108.324.324 0 0 1 .108-.45c.054-.036 1.359-.81 3.024-.036a.34.34 0 0 1 .162.441.3.3 0 0 1-.108.126M316.054 247.877a.35.35 0 0 1-.18-.072.33.33 0 0 1-.045-.468c1.161-1.404 2.664-1.233 2.736-1.233.18.018.315.189.288.369a.325.325 0 0 1-.36.288c-.063-.009-1.224-.126-2.151.999a.33.33 0 0 1-.288.117M334.548 235.386a.22.22 0 0 1-.144-.054.22.22 0 0 1-.027-.315c.855-1.026 1.944-1.818 2.925-2.124a.22.22 0 0 1 .279.153.22.22 0 0 1-.153.279c-.882.27-1.917 1.026-2.709 1.98a.22.22 0 0 1-.171.081"/><path fill="#263238" d="M334.647 235.277s-.045 0-.072-.009a.22.22 0 0 1-.144-.279 5.32 5.32 0 0 0-.207-3.78c-.054-.117 0-.243.117-.297s.243 0 .297.117a5.77 5.77 0 0 1 .225 4.104c-.027.099-.117.153-.216.153z"/><path fill="#000" d="M334.359 250.534a.226.226 0 0 1-.225-.207 3.75 3.75 0 0 1 .342-1.854c.189-.387.531-.918 1.098-1.179s1.242-.162 1.638.234c.09.09.09.234 0 .315a.217.217 0 0 1-.315 0c-.261-.261-.738-.324-1.134-.144-.45.207-.729.639-.882.963a3.14 3.14 0 0 0-.297 1.62.224.224 0 0 1-.207.243h-.018z" opacity=".2"/><path fill="#263238" d="M323.723 255.57a5.03 5.03 0 0 0 3.447-3.06.164.164 0 0 0-.108-.216h-.009a.154.154 0 0 0-.207.099 4.74 4.74 0 0 1-3.204 2.844c-.081.036-.126.126-.09.207.036.09.126.126.207.099l-.045.036z"/><path fill="#05F" d="M330.768 263.196c.135-.198 1.962-1.503 1.962-1.503l3.654 2.88 5.247-7.272 4.581 2.493-9.693 12.186-5.751-8.793z"/><path fill="#000" d="M336.546 320.75a.24.24 0 0 1-.216-.153c-2.133-6.219-1.854-13.221-1.584-19.989.099-2.439.198-4.95.171-7.353-.072-7.875.306-16.614 1.197-27.495.009-.126.117-.225.243-.207a.224.224 0 0 1 .207.243c-.891 10.863-1.269 19.593-1.197 27.45.018 2.403-.081 4.932-.171 7.371-.27 6.732-.54 13.689 1.557 19.827a.23.23 0 0 1-.144.288c-.027 0-.045.009-.072.009z" opacity=".1"/><path fill="#000" d="m351.215 294.811-4.608.441 1.575-19.611 1.143 16.758 12.924.54zM330.768 263.195c.099.153 2.223 4.365 3.123 6.147.153.297.585.27.693-.036l1.629-4.401-2.007 3.42-3.438-5.121zM336.547 264.644c.135.135 3.735 3.996 3.735 3.996l5.283-8.847-4.518 10.08a.64.64 0 0 1-1.125.081l-3.375-5.319z" opacity=".2"/><path fill="#E9B376" d="M351.252 284.337s-.027 14.148-.063 14.292c-.027.153-24.66 10.44-24.66 10.44 0 .369 3.663 4.644 3.663 4.644s26.865-3.528 29.898-8.109c2.592-3.906 2.997-21.456 2.997-21.456l-11.835.18z"/><path fill="#05F" d="M351.611 260.919c9.81.828 12.222 8.136 12.042 19.26-.171 10.71.09 13.086.09 13.086l-14.715-.324s-.243-19.116-.243-20.961 2.826-11.07 2.826-11.07zM326.232 297.539l-13.482-3.393s3.699-19.188 4.329-22.401c.72-3.645 5.13-6.408 8.892-7.452l3.168 12.33z"/><path fill="#000" d="M324.233 297.036c-.144-.036-2.178-19.575-2.178-19.575l-1.116 18.756 3.294.828z" opacity=".2"/><path fill="#E9B376" d="M313.605 322.665c.126-1.26 2.493-6.786 3.708-8.622s9.216-4.977 9.216-4.977l4.698 3.393s0 1.962-1.665 3.384c-.954.819-4.185 1.647-4.185 1.647s.27.999.27 2.115c0 1.242-.243 2.763-1.269 2.718-1.017-.045-1.395-3.33-1.44-3.807.045.477.333 3.843-1.035 3.96-1.314.117-1.53-3.393-1.53-3.393l-.108 2.466c-.045.837-.882 1.557-1.656.63-.9-1.08-.972-2.934-.972-2.934s-.711 1.089-1.773 3.456c-.765 1.701-2.367 1.017-2.259-.045z"/><path fill="#000" d="M322.982 319.246a.227.227 0 0 1-.225-.216c-.027-.63-.063-1.287.027-1.935.108-.747.36-1.368.756-1.845a.22.22 0 0 1 .315-.027.22.22 0 0 1 .027.315c-.342.405-.567.963-.657 1.62-.081.603-.054 1.242-.027 1.854 0 .126-.09.225-.216.234M320.31 319.696a.227.227 0 0 1-.225-.216c-.027-.63-.063-1.287.027-1.935.108-.756.36-1.377.756-1.845.081-.09.225-.108.315-.027a.22.22 0 0 1 .027.315c-.342.405-.558.954-.657 1.62-.081.603-.054 1.242-.027 1.845 0 .126-.09.225-.216.234h-.009zM317.654 319.46a.227.227 0 0 1-.225-.216c-.027-.63-.063-1.286.027-1.934.108-.747.36-1.369.756-1.846a.22.22 0 0 1 .315-.027.22.22 0 0 1 .027.315c-.342.405-.567.964-.657 1.621-.081.603-.054 1.242-.027 1.854 0 .126-.09.224-.216.233" opacity=".1"/><path fill="#263238" d="M333.325 232.496c-.621-.783-1.611-1.188-2.601-1.35a8.74 8.74 0 0 0-4.005.27c-1.485.459-2.844 1.323-4.374 1.557-.189.027-.405.036-.54-.09-.099-.09-.126-.225-.171-.351-.27-.828-1.107-1.449-1.98-1.449s-1.719.603-1.989 1.44c-.837-1.314-2.844-1.467-4.167-.648-1.332.819-2.097 1.737-2.538 3.231-.153.522-.216 1.665-.027 2.52.387 1.71 1.323 2.754 2.817 3.663 2.016 1.224 4.401 2.07 6.723 1.647 3.096-.567 5.445-3.231 8.505-3.978 1.152-.279 2.529-.207 3.33.666l2.493-4.698c0-.792-.765-1.539-1.485-2.439z"/><path fill="#B97964" d="m181.025 404.28 6.363-.288 2.358-16.551-9.693.333z"/><path fill="#263238" d="M188.162 401.094h-2.259c-.513 0-.99.261-1.287.675-1.305 1.782-2.286 1.107-3.708-.567-.9-.108-1.143.927-1.215 1.206l-1.692 6.156a.97.97 0 0 0 .945 1.233h17.928c2.853 0 3.447-2.871 2.268-3.141-5.283-1.17-9.027-2.718-10.656-4.257-.306-.27 0-.468-.324-1.305"/><path fill="#05F" d="M192.591 403.146a.95.95 0 0 0 .387-.738.41.41 0 0 0-.189-.396c-.711-.504-3.537.819-3.852.972-.036.009-.063.045-.072.072-.027.063.009.135.072.162.693.162 1.404.252 2.124.27a2.5 2.5 0 0 0 1.539-.351zm.018-.927c.054.036.09.099.072.171a.74.74 0 0 1-.279.54c-.639.477-2.196.27-3.033.117 1.179-.513 2.844-1.098 3.24-.828"/><path fill="#05F" d="M189.026 403.253c.846-.351 2.628-1.755 2.538-2.493-.018-.153-.126-.342-.513-.396-1.548-.18-2.214 2.61-2.214 2.727-.018.045 0 .099.036.135h.09l.063.018zm1.971-2.655c.288.027.288.135.288.171.081.45-1.215 1.611-2.133 2.097.189-.648.765-2.277 1.746-2.277h.099z"/><path fill="#05F" d="M187.326 404.602s-.081-.009-.117-.036a.22.22 0 0 1-.072-.306 2.98 2.98 0 0 1 2.079-1.341c.117-.009.234.072.252.189a.23.23 0 0 1-.189.252 2.51 2.51 0 0 0-1.764 1.134.22.22 0 0 1-.189.108M188.738 405.664s-.081-.009-.117-.036a.22.22 0 0 1-.072-.306 2.98 2.98 0 0 1 2.079-1.341c.117-.009.234.072.252.189a.23.23 0 0 1-.189.252 2.51 2.51 0 0 0-1.764 1.134.22.22 0 0 1-.189.108M190.484 406.556s-.081-.009-.117-.036a.22.22 0 0 1-.072-.306 2.98 2.98 0 0 1 2.079-1.341.23.23 0 0 1 .252.189.224.224 0 0 1-.189.252 2.51 2.51 0 0 0-1.764 1.134.22.22 0 0 1-.189.108"/><path fill="#000" d="m188.459 396.469-.306 2.124-7.47-.126-.117-1.998z" opacity=".3"/><path fill="#B97964" d="m207.539 402.642 6.903-.873 1.521-15.606-9.477-.261z"/><path fill="#263238" d="M214.793 400.465h-2.259c-.513 0-.99.261-1.287.675-1.305 1.782-2.286 1.107-3.708-.567-.9-.108-1.143.927-1.215 1.206l-1.692 6.156a.97.97 0 0 0 .945 1.233h17.928c2.853 0 3.447-2.871 2.268-3.141-5.283-1.17-9.027-2.718-10.656-4.257-.306-.27 0-.468-.324-1.305"/><path fill="#05F" d="M219.698 402.209a.96.96 0 0 0 .387-.738.41.41 0 0 0-.189-.396c-.711-.504-3.537.819-3.852.972-.036.009-.063.045-.072.072-.027.063.009.135.072.162.693.162 1.404.252 2.124.27a2.5 2.5 0 0 0 1.539-.351zm.018-.927c.054.036.09.099.072.171a.74.74 0 0 1-.279.54c-.639.477-2.196.27-3.033.117 1.179-.513 2.844-1.098 3.24-.828"/><path fill="#05F" d="M216.143 402.318c.846-.351 2.628-1.755 2.538-2.493-.018-.153-.126-.342-.513-.387-1.548-.18-2.214 2.61-2.214 2.727-.018.045 0 .099.036.135h.09zm1.971-2.655c.288.027.288.135.288.171.081.45-1.215 1.611-2.133 2.097.189-.648.765-2.277 1.746-2.277h.099z"/><path fill="#05F" d="M214.441 403.676s-.081-.009-.117-.036a.22.22 0 0 1-.072-.306 2.98 2.98 0 0 1 2.079-1.341c.117-.009.234.072.252.189a.23.23 0 0 1-.189.252 2.51 2.51 0 0 0-1.764 1.134.22.22 0 0 1-.189.108M215.846 404.731s-.081-.009-.117-.036a.22.22 0 0 1-.072-.306 2.98 2.98 0 0 1 2.079-1.341c.117-.009.234.072.252.189a.224.224 0 0 1-.189.252 2.51 2.51 0 0 0-1.764 1.134.22.22 0 0 1-.189.108M217.601 405.621s-.081-.009-.117-.036a.22.22 0 0 1-.072-.306 2.95 2.95 0 0 1 2.079-1.341c.117-.009.234.072.252.189a.23.23 0 0 1-.189.252 2.51 2.51 0 0 0-1.764 1.134.22.22 0 0 1-.189.108"/><path fill="#000" d="m215.046 395.531-.207 2.133-7.614-.045-.135-2.088z" opacity=".3"/><path fill="#263238" d="M177.056 224.012c-1.818-9.459 4.077-7.713 2.07-19.755-2.214-13.266 7.245-15.183 7.245-15.183s1.116-6.606 7.29-6.264 21.636 3.618 18.531 20.016c-1.809 9.558 1.368 10.26 2.988 14.571 2.295 6.093-5.022 11.565-.243 15.732 0 0-12.249 3.591-30.123 2.394 0 0-6.651-5.742-7.758-11.511"/><path fill="#05F" d="M210.348 227.566s8.406 21.033 9.738 21.159 18.387-6.516 18.387-6.516l2.655 2.997s-8.928 11.943-23.067 15.732c-2.538.684-5.742-2.196-8.802-6.129a50 50 0 0 1-1.764-2.403 123 123 0 0 1-8.442-14.589l11.304-10.251z"/><path fill="#fff" d="M210.348 227.566s8.406 21.033 9.738 21.159 18.387-6.516 18.387-6.516l2.655 2.997s-8.928 11.943-23.067 15.732c-2.538.684-5.742-2.196-8.802-6.129a50 50 0 0 1-1.764-2.403 123 123 0 0 1-8.442-14.589l11.304-10.251z" opacity=".6"/><path fill="#000" d="M210.347 230.348c.657 2.916 2.205 7.281 3.42 10.386.396 1.008.567 2.088.387 3.159-.522 3.06-3.168 4.041-4.05 6.48a15.9 15.9 0 0 0-.846 4.437 50 50 0 0 1-1.764-2.403l-1.305-5.157 4.167-16.902z" opacity=".2"/><path fill="#263238" d="M217.252 251.068a1.505 1.505 0 0 1-1.035-1.854l5.697-23.976a2.77 2.77 0 0 1 2.547-1.98l18.27-.378a1.505 1.505 0 0 1 1.629 1.899l-5.697 23.976a2.795 2.795 0 0 1-2.547 1.989l-18.27.378a1.5 1.5 0 0 1-.594-.045z"/><path fill="#fff" d="M217.252 251.068a1.505 1.505 0 0 1-1.035-1.854l5.697-23.976a2.77 2.77 0 0 1 2.547-1.98l18.27-.378a1.505 1.505 0 0 1 1.629 1.899l-5.697 23.976a2.795 2.795 0 0 1-2.547 1.989l-18.27.378a1.5 1.5 0 0 1-.594-.045z" opacity=".2"/><path fill="#263238" d="M219.132 251.021a1.5 1.5 0 0 1-1.035-1.845l5.697-23.976a2.805 2.805 0 0 1 2.538-1.989l18.28-.378a1.504 1.504 0 0 1 1.628 1.899l-5.705 23.976a2.81 2.81 0 0 1-2.539 1.989l-18.279.378c-.198.027-.396 0-.585-.045z"/><path fill="#fff" d="M219.132 251.021a1.5 1.5 0 0 1-1.035-1.845l5.697-23.976a2.805 2.805 0 0 1 2.538-1.989l18.28-.378a1.504 1.504 0 0 1 1.628 1.899l-5.705 23.976a2.81 2.81 0 0 1-2.539 1.989l-18.279.378c-.198.027-.396 0-.585-.045z" opacity=".3"/><path fill="#fff" d="M235.62 236.892a1.907 1.907 0 0 0-2.079-1.719 3.47 3.47 0 0 0-3.15 2.538c-.072.234-.09.486-.072.729a1.89 1.89 0 0 0 2.079 1.692 3.47 3.47 0 0 0 3.159-2.529c.063-.234.09-.477.063-.711" opacity=".2"/><path fill="#B97964" d="M241.794 238.035c-.36-.027-1.89.729-2.61.225s-.045-.918-.045-.918c1.314-.324 2.763-1.971 3.564-1.494.801.468 2.124 1.062 1.935 1.809a17 17 0 0 1-.792 2.034c.207.333.234.747.072 1.107a1.3 1.3 0 0 1-.963.801c.252.252.378.603.36.963-.063.567-1.557 1.314-1.557 1.314s.288.891-.054 1.233a2.41 2.41 0 0 1-2.097.477c-.873-.207-1.476-.513-1.413-1.395s1.638-.882 1.638-.882-2.97-.9-2.34-1.458 2.997-.495 2.997-.495-4.014-.792-3.375-1.62 4.635-.603 4.635-.603.405-1.08.045-1.107z"/><path fill="#263238" d="m192.888 271.93 17.739.072s6.201 31.203 5.832 66.186c.72 20.538.144 58.302.144 58.302h-11.538s-7.353-30.672-4.41-54.972c-1.071-4.194-2.502-11.448-3.339-15.147a264 264 0 0 1-5.31-30.285c-2.025-19.098.873-24.156.873-24.156z"/><path fill="#000" d="M194.464 284.177s6.399 28.728 2.862 42.183a264 264 0 0 1-5.31-30.285l2.448-11.907z" opacity=".2"/><path fill="#263238" d="M177.974 263.754c-1.548 6.93-7.614 15.399-8.847 24.264-2.097 15.147 7.011 33.984 9.387 51.75-3.6 26.28 1.917 58.149 1.188 57.456h11.583c.351-2.34 2.727-37.944 3.906-59.04.999-18.468 2.592-64.899 2.592-64.899l-19.818-9.531z"/><path fill="#05F" d="M177.543 259.564c-.018-1.242-2.421-10.161-2.484-11.475a147.5 147.5 0 0 0-2.124-18.963 9 9 0 0 1-.099-.819c-.306-4.311 2.952-8.055 7.263-8.352a86 86 0 0 1 3.897-.171c1.35-.036 2.637-.036 3.879-.036a78 78 0 0 1 10.179.477l.747.099c1.269.162 2.556.378 3.798.585 5.391.909 9.198 5.787 8.784 11.241-.603 7.137 4.779 11.493-2.106 16.308-.891 6.12.432 19.197 2.997 28.215.909 3.204-25.038 2.781-39.6-2.034l4.86-15.066"/><path fill="#fff" d="M177.543 259.564c-.018-1.242-2.421-10.161-2.484-11.475a147.5 147.5 0 0 0-2.124-18.963 9 9 0 0 1-.099-.819c-.306-4.311 2.952-8.055 7.263-8.352a86 86 0 0 1 3.897-.171c1.35-.036 2.637-.036 3.879-.036a78 78 0 0 1 10.179.477l.747.099c1.269.162 2.556.378 3.798.585 5.391.909 9.198 5.787 8.784 11.241-.603 7.137 4.779 11.493-2.106 16.308-.891 6.12.432 19.197 2.997 28.215.909 3.204-25.038 2.781-39.6-2.034l4.86-15.066" opacity=".6"/><path fill="#B97964" d="M186.598 219.747s2.709 2.088 6.201 5.094c.729.63 1.53 1.17 2.376 1.62 2.286 1.215 4.374 1.908 4.932.81q.189-.364.297-.783c.477-1.845.279-4.437-1.206-5.625-1.683-1.341-2.493-2.484-2.187-4.293.162-1.026.531-2.088.963-3.123l-1.944-1.17-6.921-6.984c.792 4.284 1.143 11.934-2.502 14.463z"/><path fill="#000" d="M196.939 216.955c-1.908-1.134-3.996-3.087-3.744-5.328.108-.945.315-1.836.54-2.412l3.87 5.121c-.315.828-.432 1.368-.666 2.619" opacity=".2"/><path fill="#B97964" d="M187.75 197.408c.648 7.11.774 10.134 4.446 13.86 5.526 5.607 14.022 3.726 15.48-3.33 1.314-6.345.027-16.911-6.957-19.908-6.885-2.943-13.626 2.259-12.978 9.369z"/><path fill="#263238" d="M196.965 199.72c.036.756.441 1.368.909 1.377s.819-.594.783-1.341c-.036-.756-.441-1.368-.909-1.377s-.819.594-.783 1.341M203.985 199.704c.036.729.441 1.332.909 1.341s.819-.576.783-1.305-.441-1.332-.909-1.341-.819.576-.783 1.305M195.481 197.103a.33.33 0 0 0 .252-.081c1.098-1.017 2.331-.657 2.34-.657a.33.33 0 0 0 .414-.234.38.38 0 0 0-.261-.441c-.063-.018-1.611-.468-2.97.792-.135.126-.135.351 0 .495a.36.36 0 0 0 .234.126zM206.343 196.13a.27.27 0 0 0 .162-.153c.063-.162-.018-.369-.18-.459-1.629-.918-2.835-.216-2.88-.189-.144.081-.18.288-.081.45s.297.225.441.144c.045-.027.99-.549 2.286.18a.31.31 0 0 0 .252.027"/><path fill="#A24E3F" d="M202.077 199.353s1.116 2.664 2.367 4.32c.216.288.081.711-.261.837-.882.324-1.908.027-1.908.027l-.207-5.193z"/><path fill="#263238" d="m197.486 198.407 1.629-.387s-.891 1.215-1.629.387M204.598 198.414l1.629-.387s-.891 1.215-1.629.387"/><path fill="#263238" d="M190.223 199.865s3.672-5.526 3.483-9.999c0 0 7.02-1.827 12.627 5.652.891 1.188 1.422 3.177 2.223 4.896 0 0 1.341-13.536-10.674-14.643-11.997-1.107-14.346 15.75-8.496 21.429 0 0-1.431-3.87.837-7.326z"/><path fill="#B97964" d="M185.598 203.202c.837 1.458 2.205 2.376 3.456 2.691 1.881.468 2.853-2.556 2.214-4.446-.576-1.701-2.43-2.826-4.266-2.448-1.809.369-2.367 2.538-1.413 4.203z"/><path fill="#000" d="M189.584 203.051a.226.226 0 0 1-.225-.207 2.4 2.4 0 0 0-.801-1.62 2.42 2.42 0 0 0-1.71-.585c-.117.018-.234-.09-.243-.207 0-.126.09-.234.207-.243a2.85 2.85 0 0 1 2.034.693c.558.486.9 1.188.954 1.926 0 .126-.09.234-.207.243h-.018z" opacity=".2"/><path fill="#263238" d="M200.006 206.92c-1.764 0-2.394-1.638-2.394-1.656a.223.223 0 0 1 .135-.288.223.223 0 0 1 .288.135c.027.072.657 1.692 2.547 1.296.117-.027.243.054.261.171.027.117-.054.243-.171.261-.234.045-.45.072-.657.072z"/><path fill="#000" d="m175.932 264.567-1.575 4.896s17.658-3.105 26.514-11.016c6.3-5.634 5.319-8.009 5.319-8.009l-7.137.692-23.112 13.446zM183.005 239.376l-.963 15.966c-2.664 1.692-4.428-.657-4.833-3.087v-4.599l5.796-8.289z" opacity=".2"/><path fill="#05F" d="M183.96 236.952s-6.687 16.56-5.481 17.325 20.457-4.5 20.457-4.5l3.033 4.356c-.648 2.862-33.867 20.889-36.576 5.814-1.647-9.162 8.316-35.793 8.316-35.793 8.19-3.204 10.251 12.807 10.251 12.807z"/><path fill="#fff" d="M183.96 236.952s-6.687 16.56-5.481 17.325 20.457-4.5 20.457-4.5l3.033 4.356c-.648 2.862-33.867 20.889-36.576 5.814-1.647-9.162 8.316-35.793 8.316-35.793 8.19-3.204 10.251 12.807 10.251 12.807z" opacity=".6"/><path fill="#B97964" d="M202.257 254.56c2.277.18 2.358-3.249 3.537-3.384a6.4 6.4 0 0 0 1.998-.513s-.747 2.061 0 1.899 3.15-.288 3.744-2.25-1.548-6.156-2.034-6.741-3.051-.405-3.051-.405 2.754-.711 4.266-.918 1.8-1.935-.315-1.557c-.864.153-7.713.207-8.451.909s-3.492 7.623-3.492 7.623c-1.017.585 1.566 6.39 3.789 5.328z"/><g fill="#000" opacity=".3"><path d="M206.432 242.947a8.2 8.2 0 0 0-2.097.135c-.108.027-.162.135-.135.243.027.09.108.153.207.144.657-.135 1.323-.18 1.989-.135.243 0 .288-.369.045-.378zM209.959 245.027c.216.108.441-.198.225-.315-1.278-.684-2.628-.297-3.924.135-.234.072-.063.423.162.351 1.143-.378 2.394-.747 3.537-.171M210.968 246.719a3.82 3.82 0 0 0-3.627-.153.2.2 0 0 0-.063.27.19.19 0 0 0 .216.081 3.46 3.46 0 0 1 3.249.117c.207.126.432-.189.216-.315zM209.124 249.588c.099-.198.18-.414.234-.63.054-.243-.306-.378-.369-.135a2.74 2.74 0 0 1-1.269 1.764c-.216.117-.054.468.153.351h-.018a3 3 0 0 0 1.008-.927c.027 0 .045.009.081 0a1.04 1.04 0 0 1 1.134.297c.162.189.459-.063.288-.243a1.43 1.43 0 0 0-1.242-.477"/></g></svg>